<?xml version="1.0" encoding="UTF-8" standalone="no"?><!DOCTYPE svg PUBLIC "-//W3C//DTD SVG 1.1//EN" "http://www.w3.org/Graphics/SVG/1.1/DTD/svg11.dtd"><svg width="100%" height="100%" viewBox="0 0 1920 545" version="1.1" xmlns="http://www.w3.org/2000/svg" xmlns:xlink="http://www.w3.org/1999/xlink" xml:space="preserve" xmlns:serif="http://www.serif.com/" style="fill-rule:evenodd;clip-rule:evenodd;stroke-linejoin:round;stroke-miterlimit:1.41421;"><rect id="Plan-de-travail1" serif:id="Plan de travail1" x="0" y="0" width="1920" height="545" style="fill:none;"/><clipPath id="_clip1"><rect x="0" y="0" width="1920" height="545"/></clipPath><g clip-path="url(#_clip1)"><path d="M343.626,141.824l0,138.791c0,40.057 15.808,60.085 47.423,60.085c31.615,0 47.422,-20.028 47.422,-60.085l0,-138.791l55.864,0l0,140.032c0,19.367 -2.4,36.084 -7.2,50.154c-4.635,12.58 -12.663,23.918 -24.084,34.015c-18.869,16.387 -42.87,24.58 -72.002,24.58c-28.967,0 -52.885,-8.193 -71.755,-24.58c-11.586,-10.097 -19.78,-21.435 -24.58,-34.015c-4.634,-11.256 -6.952,-27.974 -6.952,-50.154l0,-140.032l55.864,0Z" style="fill-rule:nonzero;"/><path d="M564.848,141.824l56.112,0l0,22.345c19.532,-19.366 41.547,-29.049 66.044,-29.049c28.139,0 50.071,8.855 65.796,26.566c13.573,15.063 20.359,39.643 20.359,73.741l0,148.226l-56.112,0l0,-135.067c0,-23.835 -3.311,-40.305 -9.932,-49.409c-6.455,-9.269 -18.207,-13.903 -35.256,-13.903c-18.539,0 -31.698,6.124 -39.477,18.373c-7.614,12.083 -11.422,33.187 -11.422,63.312l0,116.694l-56.112,0l0,-241.829Z" style="fill-rule:nonzero;"/><path d="M843.672,141.824l56.112,0l0,22.345c19.532,-19.366 41.547,-29.049 66.044,-29.049c28.139,0 50.071,8.855 65.796,26.566c13.573,15.063 20.359,39.643 20.359,73.741l0,148.226l-56.112,0l0,-135.067c0,-23.835 -3.311,-40.305 -9.932,-49.409c-6.455,-9.269 -18.207,-13.903 -35.256,-13.903c-18.539,0 -31.698,6.124 -39.477,18.373c-7.615,12.083 -11.422,33.187 -11.422,63.312l0,116.694l-56.112,0l0,-241.829Z" style="fill-rule:nonzero;"/><path d="M1342.73,275.898l-173.303,0c1.489,19.862 7.945,35.67 19.366,47.422c11.421,11.587 26.07,17.38 43.946,17.38c13.904,0 25.408,-3.311 34.512,-9.932c8.938,-6.62 19.118,-18.869 30.539,-36.746l47.174,26.318c-7.283,12.415 -14.98,23.05 -23.09,31.905c-8.111,8.856 -16.801,16.139 -26.07,21.849c-9.27,5.711 -19.284,9.89 -30.043,12.539c-10.759,2.648 -22.428,3.972 -35.008,3.972c-36.084,0 -65.05,-11.587 -86.9,-34.76c-21.849,-23.339 -32.773,-54.291 -32.773,-92.858c0,-38.236 10.593,-69.189 31.78,-92.859c21.353,-23.339 49.657,-35.008 84.914,-35.008c35.587,0 63.726,11.338 84.417,34.015c20.524,22.511 30.787,53.712 30.787,93.603l-0.248,13.16Zm-57.354,-45.685c-7.78,-29.794 -26.567,-44.691 -56.361,-44.691c-6.786,0 -13.159,1.034 -19.118,3.103c-5.959,2.069 -11.38,5.049 -16.262,8.939c-4.883,3.889 -9.063,8.565 -12.539,14.028c-3.476,5.462 -6.124,11.669 -7.945,18.621l112.225,0Z" style="fill-rule:nonzero;"/><path d="M1403.8,141.824l55.864,0l0,21.6c10.262,-10.759 19.366,-18.124 27.311,-22.097c8.111,-4.138 17.711,-6.207 28.801,-6.207c14.732,0 30.125,4.8 46.181,14.4l-25.573,51.147c-10.594,-7.614 -20.939,-11.421 -31.036,-11.421c-30.456,0 -45.684,23.008 -45.684,69.023l0,125.384l-55.864,0l0,-241.829Z" style="fill-rule:nonzero;"/><path d="M1734.52,183.039l-46.181,24.58c-7.283,-14.897 -16.304,-22.345 -27.063,-22.345c-5.131,0 -9.517,1.696 -13.159,5.089c-3.641,3.394 -5.462,7.739 -5.462,13.035c0,9.27 10.759,18.456 32.277,27.56c29.628,12.745 49.574,24.497 59.836,35.256c10.263,10.759 15.394,25.243 15.394,43.45c0,23.339 -8.607,42.871 -25.822,58.595c-16.717,14.898 -36.911,22.346 -60.581,22.346c-40.553,0 -69.272,-19.78 -86.155,-59.34l47.671,-22.097c6.621,11.586 11.669,18.952 15.145,22.097c6.787,6.29 14.897,9.435 24.332,9.435c18.87,0 28.305,-8.607 28.305,-25.822c0,-9.931 -7.283,-19.2 -21.849,-27.808c-5.628,-2.814 -11.256,-5.545 -16.884,-8.193c-5.628,-2.648 -11.338,-5.38 -17.132,-8.193c-16.221,-7.946 -27.642,-15.891 -34.263,-23.836c-8.442,-10.097 -12.662,-23.09 -12.662,-38.981c0,-21.021 7.2,-38.401 21.6,-52.139c14.732,-13.739 32.609,-20.608 53.63,-20.608c30.953,0 53.961,15.973 69.023,47.919Z" style="fill-rule:nonzero;"/><g><path d="M57.85,383.653l-57.85,0l0,-383.352l67.782,0c50.65,0 87.231,9.518 109.742,28.553c24.828,21.187 37.242,49.16 37.242,83.92c0,27.146 -7.779,50.485 -23.338,70.017c-15.56,19.531 -36.084,32.028 -61.575,37.491c0,0 79.206,109.164 125.9,173.517c20.951,28.876 54.467,46.967 90.143,46.967l1474.78,0l0,53.112l-1491.27,0c-45.947,0 -88.995,-20.454 -115.289,-58.135l-145.841,-209.006l-10.428,0l0,156.916Zm20.608,-328.977l-20.608,0l0,121.659l18.373,0c54.789,0 82.183,-20.938 82.183,-62.816c0,-39.229 -26.649,-58.843 -79.948,-58.843Z" style="fill:#ff0a3f;"/><path d="M1920,467.822l-114.831,77.216l0,-154.433l114.831,77.217Z" style="fill:#ff0a3f;"/></g></g></svg>